# xmcd
#
# Track frame offsets: 
#        150
#        16270
#        40350
#        60340
#
# Disc length: 1108 seconds
#
# Revision: 0
# Processed by: cddbd v1.5.2PL0 Copyright (c) Steve Scherf et al.
# Submitted via: ExactAudioCopy v0.99pb5
#
DISCID=27045204
DTITLE=Microcosmica - Estrella De La Noche
DYEAR=1994
DGENRE=Southern Rock
TTITLE0=Estrella De La Noche (The Star Of The Night) (Radio Version)
TTITLE1=Estrella De La Noche (Offensive Mix)
TTITLE2=Estrella De La Noche (Medianoche Mix)
TTITLE3=Estrella De La Noche (Entre Dos Suenos Mix)
EXTD=
EXTT0=
EXTT1=
EXTT2=
EXTT3=
PLAYORDER=
